<svg width="160" height="37" viewBox="0 0 160 37" fill="none" xmlns="http://www.w3.org/2000/svg">
<g clipPath="url(#clip0_243_148)">
<path d="M13.0883 7.6L16.2416 0H22.2266L26.1755 23.2257H20.159L18.1545 9.85735L14.1526 18.4428H13.0883H12.0229L8.02106 9.85735L6.01656 23.2257H0L3.94897 0H9.93399L13.0883 7.6Z" fill="white"/>
<path d="M40.2254 7.42427H45.84V23.2257H40.2254V21.4702C39.0328 22.9697 37.4181 23.7184 35.382 23.7184C34.2302 23.7184 33.1709 23.5081 32.2043 23.0865C31.2377 22.6659 30.3942 22.0757 29.6748 21.3148C28.9544 20.5559 28.3947 19.6619 27.9938 18.6348C27.5929 17.6077 27.3925 16.4892 27.3925 15.2772C27.3925 14.1486 27.5879 13.0747 27.9786 12.0588C28.3683 11.0419 28.9137 10.154 29.6137 9.39412C30.3128 8.63523 31.1461 8.03382 32.1127 7.5919C33.0794 7.15099 34.1488 6.93054 35.321 6.93054C37.296 6.93054 38.9311 7.61831 40.2264 8.99385V7.42326L40.2254 7.42427ZM33.1913 15.2793C33.1913 15.7933 33.2839 16.2708 33.4691 16.7117C33.6543 17.1536 33.9056 17.5386 34.2251 17.8668C34.5436 18.1959 34.9241 18.4519 35.3667 18.6368C35.8094 18.8217 36.2866 18.9142 36.8014 18.9142C37.3163 18.9142 37.762 18.8217 38.2046 18.6368C38.6462 18.4519 39.0267 18.1949 39.3462 17.8668C39.6657 17.5386 39.9222 17.1577 40.1175 16.7269C40.3129 16.2962 40.4116 15.8329 40.4116 15.3402C40.4116 14.8475 40.3129 14.3812 40.1175 13.9393C39.9222 13.4984 39.6657 13.1123 39.3462 12.7842C39.0278 12.4561 38.6462 12.199 38.2046 12.0141C37.762 11.8292 37.2949 11.7368 36.8014 11.7368C36.3079 11.7368 35.8094 11.8292 35.3667 12.0141C34.9241 12.199 34.5436 12.4561 34.2251 12.7842C33.9056 13.1123 33.6543 13.4872 33.4691 13.9088C33.2839 14.3294 33.1913 14.7866 33.1913 15.2793Z" fill="white"/>
<path d="M60.5105 12.5373C59.5439 11.8811 58.5671 11.5519 57.5801 11.5519C57.0449 11.5519 56.5463 11.6444 56.0833 11.8292C55.6204 12.0141 55.2144 12.2762 54.8643 12.6145C54.5143 12.9528 54.2426 13.3541 54.0473 13.8153C53.8509 14.2776 53.7542 14.7967 53.7542 15.3707C53.7542 15.9447 53.8519 16.4333 54.0473 16.8956C54.2426 17.3578 54.5102 17.7581 54.8491 18.0964C55.1889 18.4347 55.5939 18.6968 56.0681 18.8817C56.5412 19.0666 57.0449 19.159 57.5801 19.159C58.6291 19.159 59.6049 18.7994 60.5105 18.0811V22.8244C59.1328 23.4197 57.8263 23.7174 56.5921 23.7174C55.4403 23.7174 54.3444 23.5223 53.3065 23.1322C52.2676 22.7431 51.3519 22.1824 50.5603 21.454C49.7686 20.7255 49.1357 19.8519 48.6636 18.836C48.1905 17.819 47.9544 16.6853 47.9544 15.4327C47.9544 14.1801 48.1803 13.0351 48.6331 11.9979C49.0849 10.9606 49.7025 10.0677 50.4839 9.31792C51.2654 8.56818 52.1964 7.98302 53.276 7.56142C54.3556 7.14083 55.5125 6.93054 56.7467 6.93054C58.1041 6.93054 59.3587 7.21804 60.5105 7.79305V12.5363V12.5373Z" fill="white"/>
<path d="M63.0676 7.42423H68.6517V10.0118C69.2479 9.06797 69.9785 8.34363 70.8424 7.84076C71.7063 7.33788 72.7136 7.08594 73.8654 7.08594H74.3437C74.5187 7.08594 74.7181 7.10727 74.945 7.14791V12.4774C74.2043 12.1076 73.4025 11.9227 72.5386 11.9227C71.2423 11.9227 70.2705 12.3077 69.6234 13.0778C68.9753 13.8478 68.6517 14.9724 68.6517 16.4506V23.2277H63.0676V7.42423Z" fill="white"/>
<path d="M76.5964 15.1858C76.5964 14.0155 76.8325 12.9213 77.3056 11.9054C77.7778 10.8885 78.4361 10.0067 79.2796 9.25697C80.1231 8.50723 81.1254 7.91699 82.2874 7.48624C83.4494 7.05448 84.7192 6.83911 86.098 6.83911C87.4767 6.83911 88.715 7.0494 89.877 7.47101C91.039 7.89159 92.0464 8.47675 92.9001 9.22649C93.7537 9.97623 94.4172 10.8702 94.8903 11.9065C95.3635 12.9437 95.5995 14.0886 95.5995 15.3412C95.5995 16.5939 95.3573 17.7388 94.874 18.776C94.3897 19.8133 93.7273 20.7062 92.8838 21.456C92.0402 22.2057 91.0278 22.7858 89.8445 23.1962C88.6621 23.6067 87.3811 23.8119 86.0033 23.8119C84.6256 23.8119 83.3914 23.6067 82.2396 23.1962C81.0877 22.7858 80.0957 22.2006 79.2623 21.4407C78.43 20.6808 77.7757 19.7726 77.3036 18.7151C76.8305 17.6575 76.5944 16.4811 76.5944 15.1878M82.4868 15.2488C82.4868 15.7832 82.5845 16.2708 82.7799 16.7117C82.9752 17.1536 83.2327 17.5386 83.5511 17.8668C83.8696 18.1959 84.2502 18.4519 84.6928 18.6368C85.1354 18.8217 85.6035 18.9142 86.097 18.9142C86.5905 18.9142 87.0575 18.8217 87.5001 18.6368C87.9417 18.4519 88.3223 18.1949 88.6418 17.8668C88.9613 17.5386 89.2177 17.1536 89.413 16.7117C89.6084 16.2698 89.7061 15.7933 89.7061 15.2793C89.7061 14.7652 89.6084 14.3203 89.413 13.8783C89.2177 13.4364 88.9602 13.0524 88.6418 12.7232C88.3233 12.3951 87.9427 12.1381 87.5001 11.9532C87.0575 11.7683 86.5905 11.6758 86.097 11.6758C85.6035 11.6758 85.1354 11.7673 84.6928 11.9532C84.2502 12.1381 83.8696 12.3951 83.5511 12.7232C83.2316 13.0524 82.9752 13.4313 82.7799 13.8631C82.5845 14.2938 82.4868 14.7561 82.4868 15.2488Z" fill="white"/>
<path d="M103.24 31.1111H97.6559V7.42423H103.24V9.17972C104.433 7.68126 106.058 6.93152 108.115 6.93152C109.246 6.93152 110.301 7.15299 111.277 7.59389C112.254 8.03581 113.103 8.63621 113.822 9.39611C114.543 10.156 115.103 11.05 115.504 12.0761C115.905 13.1032 116.105 14.2014 116.105 15.3717C116.105 16.542 115.905 17.6311 115.504 18.6368C115.103 19.6425 114.548 20.5264 113.837 21.2853C113.128 22.0452 112.29 22.6405 111.323 23.0723C110.357 23.504 109.306 23.7194 108.176 23.7194C106.201 23.7194 104.556 23.0418 103.239 21.6866V31.1121L103.24 31.1111ZM110.274 15.3707C110.274 14.8779 110.187 14.4116 110.013 13.9697C109.838 13.5278 109.585 13.1428 109.257 12.8146C108.927 12.4865 108.542 12.2244 108.1 12.0293C107.657 11.8343 107.179 11.7368 106.665 11.7368C106.151 11.7368 105.709 11.8292 105.276 12.0141C104.845 12.199 104.469 12.456 104.151 12.7842C103.831 13.1123 103.574 13.4973 103.379 13.9392C103.184 14.3812 103.086 14.8475 103.086 15.3402C103.086 15.8329 103.178 16.2951 103.364 16.7259C103.549 17.1566 103.807 17.5325 104.135 17.8505C104.464 18.1695 104.85 18.4255 105.292 18.6205C105.735 18.8156 106.202 18.9131 106.697 18.9131C107.191 18.9131 107.653 18.8207 108.084 18.6358C108.516 18.4509 108.891 18.1939 109.211 17.8657C109.529 17.5376 109.787 17.1576 109.982 16.7259C110.177 16.2951 110.275 15.8431 110.275 15.3707" fill="#FFDD00"/>
<path d="M130.968 7.42427H136.584V23.2257H130.968V21.4702C129.776 22.9697 128.161 23.7184 126.125 23.7184C124.973 23.7184 123.914 23.5081 122.947 23.0865C121.981 22.6659 121.137 22.0757 120.418 21.3148C119.697 20.5559 119.138 19.6619 118.737 18.6348C118.336 17.6077 118.135 16.4892 118.135 15.2772C118.135 14.1486 118.331 13.0747 118.721 12.0588C119.111 11.0419 119.657 10.154 120.357 9.39412C121.056 8.63523 121.889 8.03382 122.856 7.5919C123.822 7.15099 124.892 6.93054 126.064 6.93054C128.039 6.93054 129.674 7.61831 130.969 8.99385V7.42326L130.968 7.42427ZM123.934 15.2793C123.934 15.7933 124.027 16.2708 124.212 16.7117C124.397 17.1536 124.649 17.5386 124.967 17.8668C125.285 18.1959 125.666 18.4519 126.109 18.6368C126.55 18.8217 127.028 18.9142 127.543 18.9142C128.058 18.9142 128.505 18.8217 128.948 18.6368C129.389 18.4519 129.77 18.1949 130.089 17.8668C130.408 17.5386 130.665 17.1577 130.86 16.7269C131.056 16.2962 131.153 15.8329 131.153 15.3402C131.153 14.8475 131.056 14.3812 130.86 13.9393C130.665 13.4984 130.408 13.1123 130.089 12.7842C129.77 12.4561 129.389 12.199 128.948 12.0141C128.505 11.8292 128.037 11.7368 127.543 11.7368C127.05 11.7368 126.55 11.8292 126.109 12.0141C125.666 12.199 125.285 12.4561 124.967 12.7842C124.649 13.1123 124.396 13.4872 124.212 13.9088C124.027 14.3294 123.934 14.7866 123.934 15.2793Z" fill="#FFDD00"/>
<path d="M146.425 21.0699L138.774 7.42419H145.252L149.479 15.525L153.583 7.42419H160L147.289 31.1111H141.025L146.425 21.0699Z" fill="#FFDD00"/>
<path d="M129.648 29.3943C129.648 28.0573 128.562 26.9744 127.224 26.9744C126.553 26.9744 125.946 27.2466 125.507 27.6865C125.504 27.6896 125.502 27.6936 125.499 27.6967C125.494 27.7018 125.489 27.7079 125.484 27.7139C125.476 27.7221 125.469 27.7302 125.462 27.7373C125.451 27.7475 125.442 27.7576 125.432 27.7678C125.42 27.78 125.408 27.7922 125.395 27.8044C125.381 27.8186 125.366 27.8318 125.352 27.847C125.334 27.8633 125.317 27.8785 125.301 27.8948C125.281 27.9131 125.261 27.9293 125.243 27.9486C125.221 27.9689 125.198 27.9862 125.178 28.0065C125.154 28.0279 125.128 28.0461 125.105 28.0695C125.102 28.0726 125.099 28.0746 125.096 28.0766C125.06 28.101 125.03 28.1325 124.995 28.1589C124.956 28.1853 124.921 28.2178 124.884 28.2463C124.842 28.2737 124.804 28.3062 124.765 28.3357C124.721 28.3641 124.681 28.3966 124.638 28.4271C124.593 28.4566 124.55 28.4881 124.506 28.5206C124.458 28.5511 124.412 28.5825 124.367 28.6161C124.317 28.6476 124.268 28.678 124.22 28.7126C124.168 28.7441 124.116 28.7746 124.067 28.8101C124.014 28.8426 123.959 28.8721 123.908 28.9076C123.852 28.9401 123.795 28.9686 123.742 29.0052C123.685 29.0377 123.624 29.0651 123.57 29.1017C123.513 29.1261 123.462 29.1606 123.408 29.189C123.339 29.2175 123.277 29.2561 123.211 29.2906C123.14 29.3191 123.074 29.3567 123.007 29.3912C122.934 29.4197 122.867 29.4552 122.798 29.4898C122.723 29.5182 122.652 29.5517 122.581 29.5863C122.505 29.6137 122.43 29.6452 122.358 29.6807C122.28 29.7082 122.203 29.7376 122.129 29.7722C122.049 29.7996 121.969 29.826 121.894 29.8606C121.812 29.887 121.729 29.9103 121.652 29.9459C121.568 29.9713 121.483 29.9926 121.404 30.0272C121.374 30.0353 121.345 30.0444 121.315 30.0546C121.224 30.0729 121.137 30.1064 121.049 30.1349C120.955 30.1521 120.866 30.1826 120.776 30.211C120.68 30.2273 120.589 30.2547 120.497 30.2822C120.399 30.2974 120.306 30.3208 120.212 30.3482C120.112 30.3624 120.016 30.3827 119.921 30.4081C119.819 30.4213 119.721 30.4376 119.624 30.462C119.521 30.4732 119.42 30.4864 119.321 30.5097C119.216 30.5199 119.111 30.528 119.01 30.5514C118.904 30.5595 118.797 30.5646 118.694 30.5859C118.626 30.59 118.56 30.5971 118.494 30.6062C118.484 30.6062 118.476 30.6032 118.468 30.6032C118.362 30.6032 118.262 30.6215 118.159 30.6347C118.136 30.6347 118.115 30.6276 118.093 30.6276C117.999 30.6276 117.91 30.6448 117.818 30.655C117.781 30.653 117.746 30.6438 117.709 30.6438C117.628 30.6438 117.55 30.6601 117.471 30.6682C117.419 30.6652 117.37 30.653 117.317 30.653C117.249 30.653 117.185 30.6672 117.119 30.6733C117.052 30.6682 116.988 30.653 116.919 30.653C116.867 30.653 116.818 30.6652 116.766 30.6682C116.686 30.6601 116.609 30.6438 116.528 30.6438C116.49 30.6438 116.455 30.653 116.418 30.655C116.326 30.6448 116.238 30.6276 116.143 30.6276C116.121 30.6276 116.099 30.6337 116.076 30.6347C115.973 30.6215 115.872 30.6032 115.767 30.6032C115.757 30.6032 115.75 30.6062 115.741 30.6062C115.675 30.5971 115.608 30.59 115.54 30.5859C115.438 30.5646 115.33 30.5595 115.223 30.5514C115.123 30.528 115.018 30.5199 114.913 30.5097C114.814 30.4853 114.712 30.4732 114.61 30.462C114.513 30.4366 114.413 30.4203 114.313 30.4081C114.217 30.3817 114.121 30.3624 114.022 30.3482C113.928 30.3218 113.834 30.2974 113.737 30.2822C113.645 30.2547 113.554 30.2273 113.458 30.211C113.368 30.1826 113.28 30.1531 113.185 30.1349C113.097 30.1064 113.011 30.0729 112.919 30.0546C112.889 30.0444 112.861 30.0363 112.83 30.0272C112.751 29.9926 112.665 29.9713 112.582 29.9459C112.504 29.9114 112.421 29.887 112.34 29.8606C112.263 29.826 112.184 29.7996 112.105 29.7722C112.03 29.7376 111.954 29.7082 111.876 29.6807C111.803 29.6452 111.729 29.6147 111.653 29.5863C111.582 29.5517 111.511 29.5182 111.436 29.4898C111.367 29.4552 111.299 29.4197 111.226 29.3912C111.159 29.3567 111.093 29.3191 111.023 29.2906C110.958 29.2561 110.895 29.2175 110.826 29.189C110.772 29.1606 110.721 29.1261 110.664 29.1017C110.61 29.0651 110.549 29.0377 110.492 29.0052C110.439 28.9686 110.382 28.9401 110.326 28.9076C110.275 28.8711 110.22 28.8416 110.166 28.8101C110.117 28.7746 110.065 28.7441 110.014 28.7126C109.967 28.678 109.918 28.6476 109.868 28.6161C109.822 28.5825 109.777 28.5511 109.729 28.5206C109.685 28.4881 109.642 28.4566 109.596 28.4271C109.555 28.3956 109.514 28.3631 109.47 28.3357C109.431 28.3052 109.393 28.2727 109.351 28.2463C109.313 28.2178 109.279 28.1853 109.238 28.1589C109.204 28.1325 109.173 28.101 109.138 28.0766C109.134 28.0736 109.131 28.0715 109.128 28.0685C109.106 28.0461 109.08 28.0279 109.056 28.0055C109.036 27.9852 109.012 27.9679 108.991 27.9476C108.973 27.9293 108.952 27.912 108.933 27.8938C108.917 27.8775 108.898 27.8623 108.882 27.846C108.868 27.8318 108.853 27.8176 108.838 27.8033C108.826 27.7912 108.814 27.779 108.802 27.7668C108.792 27.7566 108.782 27.7465 108.772 27.7363C108.764 27.7282 108.757 27.72 108.75 27.7129C108.745 27.7079 108.74 27.7018 108.735 27.6957C108.732 27.6926 108.73 27.6885 108.726 27.6865C108.288 27.2466 107.68 26.9744 107.01 26.9744C105.671 26.9744 104.586 28.0573 104.586 29.3943C104.586 30.0627 104.858 30.6682 105.297 31.1061C105.299 31.1091 105.303 31.1111 105.305 31.1132C105.31 31.1183 105.316 31.1243 105.321 31.1294C105.329 31.1376 105.337 31.1457 105.346 31.1548C105.357 31.166 105.369 31.1772 105.38 31.1873C105.394 31.2016 105.408 31.2148 105.423 31.229C105.439 31.2463 105.457 31.2615 105.474 31.2778C105.494 31.2971 105.515 31.3143 105.535 31.3336C105.557 31.356 105.581 31.3753 105.604 31.3966C105.628 31.422 105.657 31.4423 105.682 31.4667C105.71 31.4941 105.74 31.5165 105.769 31.5429C105.798 31.5724 105.834 31.5967 105.864 31.6252C105.975 31.7369 106.097 31.8385 106.228 31.9269C106.265 31.9543 106.298 31.9869 106.336 32.0122C106.376 32.0417 106.412 32.0763 106.453 32.1027C106.496 32.1342 106.535 32.1687 106.579 32.1982C106.624 32.2317 106.667 32.2672 106.715 32.2977C106.763 32.3333 106.809 32.3688 106.859 32.4013C106.909 32.4389 106.959 32.4745 107.013 32.508C107.066 32.5466 107.12 32.5832 107.176 32.6177C107.232 32.6584 107.289 32.6949 107.348 32.7305C107.406 32.7721 107.467 32.8087 107.529 32.8453C107.59 32.889 107.654 32.9245 107.719 32.9631C107.782 33.0078 107.85 33.0434 107.919 33.082C107.985 33.1277 108.056 33.1633 108.127 33.2029C108.26 33.2943 108.403 33.3736 108.554 33.4376C108.628 33.4772 108.699 33.5209 108.776 33.5534C108.853 33.594 108.927 33.6367 109.007 33.6692C109.086 33.7108 109.164 33.7525 109.247 33.785C109.329 33.8277 109.411 33.8673 109.498 33.8998C109.582 33.9425 109.668 33.9811 109.757 34.0136C109.845 34.0573 109.933 34.0938 110.026 34.1264C110.115 34.17 110.208 34.2056 110.304 34.2381C110.396 34.2818 110.493 34.3163 110.592 34.3478C110.687 34.3915 110.787 34.424 110.889 34.4555C110.986 34.4992 111.091 34.5297 111.195 34.5601C111.349 34.6262 111.509 34.678 111.677 34.7115C111.782 34.7471 111.887 34.7816 111.998 34.8019C112.106 34.8365 112.213 34.869 112.327 34.8883C112.438 34.9228 112.55 34.9523 112.666 34.9706C112.78 35.0051 112.895 35.0315 113.015 35.0488C113.132 35.0823 113.25 35.1067 113.373 35.1219C113.492 35.1545 113.616 35.1758 113.742 35.19C113.864 35.2215 113.99 35.2398 114.119 35.252C114.244 35.2825 114.375 35.2987 114.506 35.3089C114.634 35.3383 114.767 35.3515 114.902 35.3586C115.064 35.3932 115.231 35.4115 115.403 35.4115C115.413 35.4115 115.421 35.4094 115.429 35.4084C115.542 35.4247 115.654 35.443 115.772 35.443C115.794 35.443 115.815 35.4369 115.839 35.4359C115.942 35.4491 116.042 35.4674 116.148 35.4674C116.186 35.4674 116.22 35.4582 116.257 35.4562C116.349 35.4663 116.437 35.4836 116.532 35.4836C116.585 35.4836 116.634 35.4714 116.685 35.4684C116.765 35.4765 116.842 35.4927 116.924 35.4927C116.992 35.4927 117.056 35.4785 117.123 35.4724C117.19 35.4785 117.253 35.4927 117.321 35.4927C117.403 35.4927 117.48 35.4765 117.559 35.4684C117.611 35.4714 117.66 35.4836 117.713 35.4836C117.807 35.4836 117.896 35.4663 117.988 35.4562C118.024 35.4582 118.06 35.4674 118.097 35.4674C118.203 35.4674 118.303 35.4491 118.406 35.4359C118.428 35.4359 118.45 35.443 118.473 35.443C118.59 35.443 118.703 35.4247 118.816 35.4084C118.825 35.4084 118.833 35.4115 118.842 35.4115C119.014 35.4115 119.181 35.3922 119.343 35.3586C119.479 35.3505 119.612 35.3373 119.74 35.3089C119.872 35.2987 120.002 35.2825 120.127 35.252C120.256 35.2398 120.381 35.2215 120.504 35.19C120.63 35.1758 120.752 35.1545 120.873 35.1219C120.996 35.1057 121.115 35.0823 121.231 35.0488C121.351 35.0315 121.466 35.0051 121.58 34.9706C121.697 34.9523 121.809 34.9228 121.919 34.8883C122.032 34.869 122.14 34.8365 122.248 34.8019C122.359 34.7806 122.464 34.7461 122.569 34.7115C122.737 34.678 122.897 34.6262 123.051 34.5601C123.156 34.5297 123.26 34.4992 123.357 34.4555C123.459 34.424 123.559 34.3925 123.654 34.3478C123.753 34.3163 123.85 34.2818 123.942 34.2381C124.038 34.2056 124.131 34.17 124.22 34.1264C124.313 34.0938 124.402 34.0563 124.489 34.0136C124.578 33.9811 124.664 33.9425 124.748 33.8998C124.835 33.8673 124.917 33.8267 124.999 33.785C125.082 33.7525 125.16 33.7108 125.239 33.6692C125.319 33.6367 125.393 33.594 125.47 33.5534C125.548 33.5209 125.618 33.4772 125.691 33.4376C125.843 33.3736 125.984 33.2943 126.119 33.2029C126.189 33.1633 126.261 33.1277 126.326 33.082C126.394 33.0434 126.463 33.0078 126.526 32.9631C126.591 32.9256 126.655 32.889 126.716 32.8453C126.778 32.8087 126.839 32.7721 126.897 32.7305C126.956 32.6949 127.013 32.6584 127.069 32.6177C127.125 32.5832 127.179 32.5466 127.232 32.508C127.285 32.4745 127.335 32.4389 127.386 32.4013C127.435 32.3698 127.482 32.3333 127.53 32.2977C127.577 32.2672 127.62 32.2317 127.665 32.1982C127.71 32.1687 127.749 32.1352 127.792 32.1027C127.833 32.0752 127.869 32.0417 127.909 32.0122C127.947 31.9869 127.98 31.9543 128.016 31.9269C128.148 31.8385 128.27 31.7369 128.381 31.6252C128.412 31.5967 128.447 31.5734 128.476 31.5429C128.505 31.5165 128.535 31.4941 128.563 31.4667C128.588 31.4433 128.617 31.422 128.641 31.3966C128.664 31.3753 128.688 31.356 128.71 31.3336C128.731 31.3143 128.751 31.2971 128.77 31.2778C128.788 31.2615 128.805 31.2463 128.822 31.229C128.837 31.2148 128.851 31.2016 128.865 31.1873C128.876 31.1762 128.887 31.166 128.899 31.1548C128.907 31.1467 128.915 31.1386 128.924 31.1294C128.929 31.1243 128.934 31.1193 128.94 31.1132C128.943 31.1111 128.945 31.1081 128.948 31.1061C129.387 30.6682 129.659 30.0627 129.659 29.3932" fill="#FFDD00"/>
</g>
<path d="M0 32.007C0 31.0427 0.194738 30.185 0.584213 29.4339C0.973688 28.6736 1.51463 28.0848 2.20703 27.6676C2.90808 27.2411 3.70001 27.0278 4.58282 27.0278C5.6647 27.0278 6.59078 27.3338 7.36108 27.9458C8.13137 28.5577 8.64635 29.3922 8.906 30.4492H6.46529C6.28353 30.0413 6.02388 29.7306 5.68634 29.5174C5.35745 29.3041 4.98095 29.1975 4.55686 29.1975C3.87311 29.1975 3.31919 29.4525 2.8951 29.9624C2.471 30.4724 2.25896 31.1539 2.25896 32.007C2.25896 32.86 2.471 33.5415 2.8951 34.0515C3.31919 34.5614 3.87311 34.8164 4.55686 34.8164C4.98095 34.8164 5.35745 34.7098 5.68634 34.4965C6.02388 34.2833 6.28353 33.9726 6.46529 33.5647H8.906C8.64635 34.6217 8.13137 35.4562 7.36108 36.0682C6.59078 36.6708 5.6647 36.9722 4.58282 36.9722C3.70001 36.9722 2.90808 36.7636 2.20703 36.3463C1.51463 35.9198 0.973688 35.331 0.584213 34.58C0.194738 33.8289 0 32.9713 0 32.007Z" fill="#EDF2F7"/>
<path d="M13.7838 35.0668H16.6918V36.9026H11.5638V27.1391H13.7838V35.0668Z" fill="#EDF2F7"/>
<path d="M21.269 27.1391V36.9026H19.049V27.1391H21.269Z" fill="#EDF2F7"/>
<path d="M26.3961 29.0445V31.0195H29.3691V32.8554H26.3961V34.9972H29.7585V36.9026H24.1761V27.1391H29.7585V29.0445H26.3961Z" fill="#EDF2F7"/>
<path d="M40.6511 36.9026H38.431L34.718 30.8804V36.9026H32.498V27.1391H34.718L38.431 33.1892V27.1391H40.6511V36.9026Z" fill="#EDF2F7"/>
<path d="M50.1147 27.1391V29.0445H47.6999V36.9026H45.4799V29.0445H43.0652V27.1391H50.1147Z" fill="#EDF2F7"/>
<path d="M54.7471 29.0445V31.0195H57.7201V32.8554H54.7471V34.9972H58.1096V36.9026H52.5271V27.1391H58.1096V29.0445H54.7471Z" fill="#EDF2F7"/>
<path d="M68.1961 37C67.5296 37 66.9324 36.8841 66.4045 36.6523C65.8765 36.4205 65.4524 36.0774 65.1322 35.6231C64.8206 35.1688 64.6562 34.6217 64.6389 33.9819H67.0017C67.0363 34.3435 67.1531 34.6217 67.3522 34.8164C67.5513 35.0019 67.8109 35.0946 68.1312 35.0946C68.46 35.0946 68.7197 35.0158 68.9101 34.8581C69.1005 34.6912 69.1957 34.4641 69.1957 34.1766C69.1957 33.9356 69.1178 33.7362 68.962 33.5786C68.8149 33.421 68.6288 33.2911 68.4038 33.1892C68.1874 33.0872 67.8758 32.9713 67.469 32.8414C66.8805 32.6467 66.4002 32.452 66.028 32.2573C65.6558 32.0626 65.3356 31.7752 65.0673 31.395C64.799 31.0148 64.6648 30.5188 64.6648 29.9068C64.6648 28.9981 64.9721 28.2888 65.5866 27.7789C66.2011 27.2596 67.0017 27 67.9883 27C68.9923 27 69.8016 27.2596 70.4161 27.7789C71.0306 28.2888 71.3595 29.0028 71.4027 29.9207H69.001C68.9837 29.6055 68.8755 29.3598 68.6764 29.1836C68.4774 28.9981 68.222 28.9054 67.9105 28.9054C67.6422 28.9054 67.4258 28.9842 67.2613 29.1419C67.0969 29.2902 67.0147 29.5081 67.0147 29.7955C67.0147 30.1108 67.1531 30.3565 67.4301 30.5327C67.7071 30.7089 68.1398 30.8989 68.7284 31.1029C69.3169 31.3162 69.7929 31.5202 70.1564 31.7149C70.5286 31.9096 70.8488 32.1924 71.1171 32.5633C71.3854 32.9342 71.5196 33.4117 71.5196 33.9958C71.5196 34.5522 71.3854 35.0575 71.1171 35.5118C70.8575 35.9662 70.4767 36.3278 69.9747 36.5967C69.4727 36.8656 68.8798 37 68.1961 37Z" fill="#EDF2F7"/>
<path d="M79.8574 35.178H76.456L75.9107 36.9026H73.5869L76.8844 27.1391H79.4549L82.7525 36.9026H80.4027L79.8574 35.178ZM79.2862 33.3421L78.1567 29.7677L77.0402 33.3421H79.2862Z" fill="#EDF2F7"/>
<path d="M92 30.2823C92 30.8479 91.8788 31.3672 91.6365 31.8401C91.3941 32.3037 91.022 32.6792 90.52 32.9666C90.018 33.2541 89.3948 33.3978 88.6505 33.3978H87.2744V36.9026H85.0544V27.1391H88.6505C89.3775 27.1391 89.992 27.2735 90.494 27.5424C90.996 27.8113 91.3725 28.1822 91.6235 28.6551C91.8745 29.128 92 29.6704 92 30.2823ZM88.4817 31.5063C88.9058 31.5063 89.2217 31.3996 89.4295 31.1864C89.6372 30.9731 89.741 30.6718 89.741 30.2823C89.741 29.8929 89.6372 29.5916 89.4295 29.3783C89.2217 29.165 88.9058 29.0584 88.4817 29.0584H87.2744V31.5063H88.4817Z" fill="#EDF2F7"/>
<defs>
<clipPath id="clip0_243_148">
<rect width="160" height="35.4958" fill="white"/>
</clipPath>
</defs>
</svg>
